<?xml version="1.0" encoding="UTF-8"?>
<svg version="1.1" xmlns="http://www.w3.org/2000/svg" width="225" height="225">
<path d="M0 0 C74.25 0 148.5 0 225 0 C225 74.25 225 148.5 225 225 C150.75 225 76.5 225 0 225 C0 150.75 0 76.5 0 0 Z " fill="#FEFEFE" transform="translate(0,0)"/>
<path d="M0 0 C4.38450671 3.67171355 8.22546493 7.45457792 10 13 C10.26971844 17.74535878 10.03155161 20.81975626 6.83203125 24.48046875 C3.90230341 27.08691628 0.84627204 29.43573975 -2.3125 31.75 C-12.45018321 39.43361251 -18.15169026 47.11796817 -23 59 C-22.41734375 59.14695312 -21.8346875 59.29390625 -21.234375 59.4453125 C-12.79448897 61.75433792 -2.52172345 64.8098173 3.04272461 71.99829102 C5.20675636 76.52338572 4.72355913 81.65473466 4.625 86.5625 C4.60953125 87.76108643 4.5940625 88.95967285 4.578125 90.19458008 C3.86099969 116.12658972 -5.66465926 138.65555367 -24.4453125 156.72265625 C-39.69598903 170.31767829 -59.2201873 178.09168967 -79.625 178.203125 C-80.86092896 178.21167511 -80.86092896 178.21167511 -82.12182617 178.22039795 C-83.86326835 178.22981315 -85.60472807 178.23636804 -87.34619141 178.24023438 C-89.96419939 178.24986826 -92.58139698 178.28089453 -95.19921875 178.3125 C-109.89583604 178.40580437 -122.57490262 176.40076364 -136 170 C-136.90234375 169.58105469 -137.8046875 169.16210938 -138.734375 168.73046875 C-156.9309835 159.60586882 -171.86150316 142.9049316 -178.80957031 123.77050781 C-182.52330281 112.57210263 -184.30376518 101.93055148 -184.51489258 90.11450195 C-184.54660023 88.74782104 -184.59442952 87.38141805 -184.65844727 86.01586914 C-185.17849368 74.72828203 -185.17849368 74.72828203 -182.359375 70.59399414 C-180.33203023 68.76876342 -178.35993523 67.36053107 -176 66 C-175.11054688 65.45988281 -174.22109375 64.91976562 -173.3046875 64.36328125 C-160.66182455 58.89554792 -147.91598242 56.17653678 -134.34667969 54.32470703 C-132.20879088 54.02889012 -130.07786717 53.70269602 -127.9453125 53.37109375 C-112.43029995 51.14768842 -96.63164066 51.81917483 -81 52 C-81.14074951 51.45400146 -81.28149902 50.90800293 -81.42651367 50.34545898 C-82.75757542 44.8505029 -83.35532148 39.71004202 -83.3125 34.0625 C-83.30686035 33.27617188 -83.3012207 32.48984375 -83.29541016 31.6796875 C-83.06552209 20.66326933 -79.61215524 11.325982 -72.21875 2.9921875 C-53.56575004 -14.66700508 -20.11495847 -14.81224534 0 0 Z " fill="#F46902" transform="translate(201,26)"/>
<path d="M0 0 C4.38450671 3.67171355 8.22546493 7.45457792 10 13 C10.26971844 17.74535878 10.03155161 20.81975626 6.83203125 24.48046875 C3.90230341 27.08691628 0.84627204 29.43573975 -2.3125 31.75 C-12.45018321 39.43361251 -18.15169026 47.11796817 -23 59 C-22.41734375 59.14695312 -21.8346875 59.29390625 -21.234375 59.4453125 C-12.86572348 61.73484924 -2.48265641 64.8001467 3.06469727 71.90600586 C5.26397678 76.82984308 4.49103689 82.60129481 4.3125 87.875 C4.27866211 89.76605469 4.27866211 89.76605469 4.24414062 91.6953125 C4.18537581 94.79809499 4.10325851 97.89843199 4 101 C3.67 101 3.34 101 3 101 C2.67 94.73 2.34 88.46 2 82 C0.02 83.65 -1.96 85.3 -4 87 C-27.71149521 101.31637446 -60.30642645 101.53712653 -87.06616211 101.39111328 C-90.5646856 101.37498993 -94.06205722 101.39110156 -97.56054688 101.41015625 C-124.09134213 101.43548941 -160.43101937 100.81785356 -182 83 C-184.56080651 79.15879024 -184.75892709 77.55356252 -184 73 C-173.26253618 58.94259611 -150.67590284 56.55318862 -134.34667969 54.32470703 C-132.20879088 54.02889012 -130.07786717 53.70269602 -127.9453125 53.37109375 C-112.43029995 51.14768842 -96.63164066 51.81917483 -81 52 C-81.14074951 51.45400146 -81.28149902 50.90800293 -81.42651367 50.34545898 C-82.75757542 44.8505029 -83.35532148 39.71004202 -83.3125 34.0625 C-83.30686035 33.27617188 -83.3012207 32.48984375 -83.29541016 31.6796875 C-83.06552209 20.66326933 -79.61215524 11.325982 -72.21875 2.9921875 C-53.56575004 -14.66700508 -20.11495847 -14.81224534 0 0 Z " fill="#F8B500" transform="translate(201,26)"/>
<path d="M0 0 C2.5625 1.5625 2.5625 1.5625 4 4 C4.25 7.75 4.25 7.75 4 11 C4.804375 11.061875 5.60875 11.12375 6.4375 11.1875 C11.1635451 12.26536993 14.87513427 14.51591419 19 17 C18 20 18 20 16.05078125 21.24609375 C9.29365845 24.18606872 2.66858621 25.86219246 -4.5625 27.1875 C-5.40449951 27.34210693 -6.24649902 27.49671387 -7.11401367 27.65600586 C-10.07032782 28.15934206 -13.02904081 28.59128625 -16 29 C-16.6345813 29.08827057 -17.2691626 29.17654114 -17.92297363 29.26748657 C-31.45528435 31.08727345 -44.9179904 31.34094114 -58.55859375 31.31567383 C-62.09927474 31.31252289 -65.63910947 31.33603828 -69.1796875 31.36132812 C-125.15825956 31.52000953 -125.15825956 31.52000953 -143 18 C-142 15 -142 15 -139.5 13.60546875 C-127.35635414 8.6856658 -114.78577151 5.77243101 -102 3 C-101.19014648 2.82178711 -100.38029297 2.64357422 -99.54589844 2.45996094 C-88.1095706 0.39378893 -76.20144584 0.87416891 -64.625 0.9375 C-63.00260557 0.94253144 -61.3802096 0.9470914 -59.7578125 0.95117188 C-55.83850279 0.96203258 -51.91926906 0.97920388 -48 1 C-48 1.99 -48 2.98 -48 4 C-47.05125 3.505 -46.1025 3.01 -45.125 2.5 C-40.55542367 0.53228448 -35.90444842 0.33978579 -31 1 C-30.01 1.66 -29.02 2.32 -28 3 C-21.80629515 3.77046086 -16.65863854 3.12712028 -10.9765625 0.68359375 C-7.3467083 -0.57179061 -3.76785661 -0.65141725 0 0 Z " fill="#DB4400" transform="translate(172,90)"/>
<path d="M0 0 C0.99 3.96 0.99 3.96 2 8 C0.82703369 8.02187378 0.82703369 8.02187378 -0.36962891 8.04418945 C-49.29857708 6.29494693 -49.29857708 6.29494693 -92 24 C-92.14091482 26.47326954 -92.14091482 26.47326954 -91 29 C-72.07648017 44.24143144 -36.85846251 42.51603791 -14.04370117 42.39111328 C-10.56714584 42.3750215 -7.09175518 42.39108539 -3.61523438 42.41015625 C35.78313404 43.07429319 35.78313404 43.07429319 72 30 C72.98777757 26.39612003 72.98777757 26.39612003 73 23 C67.77100018 19.04291905 62.18876596 17.07026335 56 15 C56.33 12.36 56.66 9.72 57 7 C66.45899008 8.63207064 76.00079005 12.2763495 83 19 C85.36008817 22.54013225 85.23463644 24.01121955 85.1953125 28.19921875 C85.18564453 30.01196289 85.18564453 30.01196289 85.17578125 31.86132812 C85.15064453 33.7552832 85.15064453 33.7552832 85.125 35.6875 C85.11597656 36.96173828 85.10695312 38.23597656 85.09765625 39.54882812 C85.07405641 42.69940627 85.04113194 45.84960983 85 49 C84.67 49 84.34 49 84 49 C83.67 42.73 83.34 36.46 83 30 C81.02 31.65 79.04 33.3 77 35 C53.28850479 49.31637446 20.69357355 49.53712653 -6.06616211 49.39111328 C-9.5646856 49.37498993 -13.06205722 49.39110156 -16.56054688 49.41015625 C-43.09134213 49.43548941 -79.43101937 48.81785356 -101 31 C-103.56080651 27.15879024 -103.75892709 25.55356252 -103 21 C-92.26253618 6.94259611 -69.67590284 4.55318862 -53.34667969 2.32470703 C-51.20879088 2.02889012 -49.07786717 1.70269602 -46.9453125 1.37109375 C-31.43029995 -0.85231158 -15.63164066 -0.18082517 0 0 Z " fill="#FCB856" transform="translate(120,78)"/>
<path d="M0 0 C-0.39832031 0.42410156 -0.79664062 0.84820312 -1.20703125 1.28515625 C-5.78448953 6.35265872 -9 10.51523797 -9 17.625 C-7.79315095 21.69811554 -6.19186495 23.25351156 -3 26 C-1.65944009 27.32606737 -0.324832 28.65821919 1 30 C-17.30939658 30.67999134 -35.47628933 28.81520012 -53.1875 24.0625 C-54.08944092 23.82192871 -54.99138184 23.58135742 -55.9206543 23.33349609 C-60.95281575 21.88695965 -64.82167691 20.16622519 -69 17 C-68 14 -68 14 -65.5 12.60546875 C-44.78055917 4.21132029 -22.35736209 -0.38547176 0 0 Z " fill="#DA4400" transform="translate(98,91)"/>
<path d="M0 0 C2 0.25 2 0.25 4 1 C4.33 1.99 4.66 2.98 5 4 C5.845625 3.67 6.69125 3.34 7.5625 3 C11.20989216 1.93894046 14.22274664 1.84890987 18 2 C19.10844919 5.32534757 18.84454356 7.62182575 18 11 C19.7325 11.37125 19.7325 11.37125 21.5 11.75 C26.83290869 13.07848259 32.07114801 15.07114801 36 19 C35.75 22.5625 35.75 22.5625 35 26 C34.34 26.33 33.68 26.66 33 27 C32.63261719 26.56042969 32.26523438 26.12085937 31.88671875 25.66796875 C29.41335352 23.4813705 26.87317451 22.53018771 23.8125 21.3125 C22.72582031 20.87550781 21.63914063 20.43851563 20.51953125 19.98828125 C19.27236328 19.49908203 19.27236328 19.49908203 18 19 C17.67 16.03 17.34 13.06 17 10 C11.64442087 8.21480696 6.32628763 8.22644747 1.125 10.5 C-3.74367477 12.56698265 -8.78784255 12.64836207 -14 12 C-14.99 11.34 -15.98 10.68 -17 10 C-19.37755949 9.6831783 -19.37755949 9.6831783 -21.9375 9.75 C-22.79214844 9.74484375 -23.64679688 9.7396875 -24.52734375 9.734375 C-27.14104624 10.01515189 -28.69888787 10.78939404 -31 12 C-31.99 12 -32.98 12 -34 12 C-34 11.01 -34 10.02 -34 9 C-38.72830487 9.12004105 -43.45647294 9.24436091 -48.18457031 9.37231445 C-49.78642881 9.41510119 -51.38831671 9.45680353 -52.99023438 9.49731445 C-67.68490417 9.87020551 -81.98567761 10.38163253 -96.375 13.6875 C-97.54168213 13.95079102 -98.70836426 14.21408203 -99.91040039 14.48535156 C-110.35814047 16.92660855 -120.44864038 20.02484462 -130 25 C-130.33 23.35 -130.66 21.7 -131 20 C-113.64107591 2.64107591 -77.1893206 3.91475945 -54.34350586 3.86816406 C-48.22862654 3.87129308 -42.11438297 3.92177248 -36 4 C-35.505 4.99 -35.505 4.99 -35 6 C-33.5459375 5.7525 -33.5459375 5.7525 -32.0625 5.5 C-25.85480401 4.65065729 -20.37789816 4.3233482 -14.4375 6.5625 C-9.84911736 8.27710614 -6.77156299 8.00453958 -2 7 C-1.34 6.67 -0.68 6.34 0 6 C-0.185625 5.195625 -0.37125 4.39125 -0.5625 3.5625 C-0.7790625 2.2940625 -0.7790625 2.2940625 -1 1 C-0.67 0.67 -0.34 0.34 0 0 Z " fill="#F89802" transform="translate(158,82)"/>
<path d="M0 0 C5.01508715 1.54058233 9.6147081 3.02931839 14 6 C13 9 13 9 11.05078125 10.24609375 C-7.3715847 18.26153115 -29.44712696 19.89289269 -49.375 20.4375 C-50.07085205 20.47198242 -50.7667041 20.50646484 -51.48364258 20.54199219 C-55.47443969 20.57549931 -56.88417479 20.09834503 -59.9765625 17.47265625 C-60.64429687 16.65667969 -61.31203125 15.84070313 -62 15 C-61.27748047 14.98541748 -60.55496094 14.97083496 -59.81054688 14.95581055 C-46.78035657 14.66462736 -33.81889828 14.2244016 -20.875 12.625 C-19.92431641 12.51115967 -18.97363281 12.39731934 -17.99414062 12.2800293 C-8.73179878 11.09303171 -8.73179878 11.09303171 0 8 C1.41019571 6.11765355 1.41019571 6.11765355 2 4 C1.21690533 1.76529595 1.21690533 1.76529595 0 0 Z " fill="#D14201" transform="translate(177,101)"/>
<path d="M0 0 C-0.55429687 0.45890625 -1.10859375 0.9178125 -1.6796875 1.390625 C-2.40414062 2.00421875 -3.12859375 2.6178125 -3.875 3.25 C-4.59429687 3.85328125 -5.31359375 4.4565625 -6.0546875 5.078125 C-9.17694822 8.16276812 -9.95653684 10.17419989 -10.1875 14.5625 C-10.15273616 17.98193958 -10.15273616 17.98193958 -9 21 C-25.8929385 17.14578588 -25.8929385 17.14578588 -33 13 C-33 11.68 -33 10.36 -33 9 C-25.19411267 5.63539339 -17.44338578 2.63781195 -9.1875 0.5625 C-8.50042969 0.38686523 -7.81335938 0.21123047 -7.10546875 0.03027344 C-2.25973767 -1.12986883 -2.25973767 -1.12986883 0 0 Z " fill="#DB4500" transform="translate(63,96)"/>
<path d="M0 0 C-0.39832031 0.42410156 -0.79664062 0.84820312 -1.20703125 1.28515625 C-5.78448953 6.35265872 -9 10.51523797 -9 17.625 C-7.79315095 21.69811554 -6.19186495 23.25351156 -3 26 C-1.66666667 27.33333333 -0.33333333 28.66666667 1 30 C-2.63 30 -6.26 30 -10 30 C-10 29.34 -10 28.68 -10 28 C-10.7425 27.773125 -11.485 27.54625 -12.25 27.3125 C-15.65610566 25.68685866 -17.00863935 24.20040104 -19 21 C-20.18317743 16.93282758 -20.43278778 14.92459208 -18.625 11.0625 C-13.67094019 4.73707415 -8.50933388 -1.44839726 0 0 Z " fill="#BA3C00" transform="translate(98,91)"/>
<path d="M0 0 C-0.39832031 0.50789063 -0.79664062 1.01578125 -1.20703125 1.5390625 C-7.03893341 8.73083295 -7.03893341 8.73083295 -9 17.5 C-7.45302562 22.91441031 -4.05406951 26.15930257 0 30 C-5.97106778 30.49758898 -10.01787025 29.37700845 -15 26 C-17.97580741 23.44109314 -19.75712529 21.01565787 -20.6875 17.125 C-19.13906742 10.08667008 -13.67780438 5.11689927 -7.96875 1.0546875 C-5.23557157 -0.40951523 -3.03035075 -0.45455261 0 0 Z " fill="#E45E13" transform="translate(120,91)"/>
<path d="M0 0 C-0.40992187 0.54269531 -0.81984375 1.08539063 -1.2421875 1.64453125 C-1.78101562 2.35996094 -2.31984375 3.07539062 -2.875 3.8125 C-3.40867187 4.52019531 -3.94234375 5.22789063 -4.4921875 5.95703125 C-6.98594119 9.33587368 -8.27833724 11.23650439 -8.25 15.4375 C-8.25515625 16.19933594 -8.2603125 16.96117188 -8.265625 17.74609375 C-7.9747292 20.21443018 -7.22975656 21.857686 -6 24 C-14.81415929 24.29380531 -14.81415929 24.29380531 -18 22 C-19.5547669 18.89046621 -19.28644437 16.43733239 -19 13 C-14.98172368 5.12417841 -8.83157537 -0.19199077 0 0 Z " fill="#BA3C00" transform="translate(71,94)"/>
<path d="M0 0 C0.66 0.33 1.32 0.66 2 1 C0.70525365 3.58949269 -0.32663393 3.96035764 -3 5 C-5.75 5.125 -5.75 5.125 -8 5 C-8 5.66 -8 6.32 -8 7 C-9.6796875 8.2890625 -9.6796875 8.2890625 -11.875 9.625 C-12.59429687 10.07101563 -13.31359375 10.51703125 -14.0546875 10.9765625 C-16 12 -16 12 -18 12 C-18.2784375 12.72703125 -18.556875 13.4540625 -18.84375 14.203125 C-20.26384603 17.63822216 -22.00872746 20.84533959 -23.78125 24.109375 C-27.26751258 32.37807471 -27.17023271 40.32936422 -26.83398438 49.15429688 C-26.81529297 50.00958984 -26.79660156 50.86488281 -26.77734375 51.74609375 C-26.74890381 52.51622803 -26.72046387 53.2863623 -26.69116211 54.07983398 C-26.79307861 54.71348877 -26.89499512 55.34714355 -27 56 C-27.99 56.66 -28.98 57.32 -30 58 C-32.48525566 42.86799983 -32.16816201 28.53287344 -23.71875 15.3203125 C-17.66525527 7.14809461 -9.48548744 3.16182915 0 0 Z " fill="#FCC60B" transform="translate(149,18)"/>
<path d="M0 0 C6.93225584 1.21956353 13.88538291 2.88538291 19 8 C18.75 11.5625 18.75 11.5625 18 15 C17.01 15.495 17.01 15.495 16 16 C15.63261719 15.56042969 15.26523438 15.12085937 14.88671875 14.66796875 C12.41335352 12.4813705 9.87317451 11.53018771 6.8125 10.3125 C5.72582031 9.87550781 4.63914063 9.43851563 3.51953125 8.98828125 C2.68808594 8.66214844 1.85664063 8.33601563 1 8 C0.67 5.36 0.34 2.72 0 0 Z " fill="#FE9803" transform="translate(175,93)"/>
<path d="M0 0 C0 0.33 0 0.66 0 1 C-1.07378906 1.06058594 -2.14757812 1.12117188 -3.25390625 1.18359375 C-4.69011315 1.26807651 -6.12631058 1.35272054 -7.5625 1.4375 C-8.26697266 1.47681641 -8.97144531 1.51613281 -9.69726562 1.55664062 C-14.1798541 1.82518279 -18.56293497 2.30616197 -23 3 C-22.67 2.01 -22.34 1.02 -22 0 C-15.22084301 -2.77396577 -6.58127675 -3.29063838 0 0 Z " fill="#FDC401" transform="translate(173,18)"/>
<path d="M0 0 C4.05766511 0.15028389 6.3008948 0.40844945 9.4375 3.0625 C10.2109375 4.0215625 10.2109375 4.0215625 11 5 C5.73946963 5.31563182 2.55426184 4.66590937 -2 2 C-1.34 1.34 -0.68 0.68 0 0 Z " fill="#D85911" transform="translate(109,116)"/>
<path d="M0 0 C1.65 0.33 3.3 0.66 5 1 C4.67 2.32 4.34 3.64 4 5 C2.35 4.67 0.7 4.34 -1 4 C-0.67 2.68 -0.34 1.36 0 0 Z " fill="#F2A500" transform="translate(163,21)"/>
<path d="M0 0 C1.65 0.33 3.3 0.66 5 1 C4.67 2.32 4.34 3.64 4 5 C2.35 4.67 0.7 4.34 -1 4 C-0.67 2.68 -0.34 1.36 0 0 Z " fill="#F2A400" transform="translate(138,56)"/>
<path d="M0 0 C1.98 0.495 1.98 0.495 4 1 C3.67 2.32 3.34 3.64 3 5 C1.68 5 0.36 5 -1 5 C-0.67 3.35 -0.34 1.7 0 0 Z " fill="#F2A400" transform="translate(144,27)"/>
</svg>
