<?xml version="1.0" encoding="UTF-8"?>
<svg version="1.1" xmlns="http://www.w3.org/2000/svg" width="350" height="280">
<path d="M0 0 C115.5 0 231 0 350 0 C350 92.4 350 184.8 350 280 C234.5 280 119 280 0 280 C0 187.6 0 95.2 0 0 Z " fill="#000000" transform="translate(0,0)"/>
<path d="M0 0 C9.16502371 0.0405532 17.33117575 2.8427165 24.24609375 9 C27.30430347 12.35703687 29.75103781 15.55924556 31 20 C31.43570313 19.61328125 31.87140625 19.2265625 32.3203125 18.828125 C41.33429153 10.94577104 48.2491711 7.79568949 60.328125 7.734375 C63 8 63 8 66 10 C64.02 10.33 62.04 10.66 60 11 C60 11.66 60 12.32 60 13 C58.27473958 13.71614583 56.54947917 14.43229167 54.82421875 15.1484375 C52.14293609 16.40008551 50.08680163 17.91319837 48 20 C46.66666667 21.33333333 45.33333333 22.66666667 44 24 C45.34191406 23.94779297 45.34191406 23.94779297 46.7109375 23.89453125 C59.49779097 23.60825841 69.30291114 25.68944617 78.7890625 34.69921875 C82.22739305 38.46783229 84.41398181 42.14865024 86 47 C85.67 47.99 85.34 48.98 85 50 C84.401875 49.360625 83.80375 48.72125 83.1875 48.0625 C81.09189663 45.79689611 81.09189663 45.79689611 78 45 C77.505 45.99 77.505 45.99 77 47 C75.824375 45.7934375 75.824375 45.7934375 74.625 44.5625 C72.28017144 42.01309583 72.28017144 42.01309583 70 41 C69.505 41.99 69.505 41.99 69 43 C67.57494141 41.78763672 67.57494141 41.78763672 66.12109375 40.55078125 C61.59781642 37.31986887 57.48557582 37.22461611 52.0625 37.1875 C51.18787109 37.16236328 50.31324219 37.13722656 49.41210938 37.11132812 C47.27521492 37.05294303 45.13756286 37.0234897 43 37 C43 37.66 43 38.32 43 39 C43.9075 39.04125 44.815 39.0825 45.75 39.125 C54.9523043 40.50627894 62.71689899 45.63448795 68.4453125 52.7890625 C73.259312 59.63510199 75.00342185 68.01960575 73.609375 76.328125 C73.0625 78.25 73.0625 78.25 72 81 C71.67 81 71.34 81 71 81 C70.91363281 80.34773438 70.82726562 79.69546875 70.73828125 79.0234375 C69.7264834 72.72986921 68.37908855 69.58761658 64 65 C63.34 63.948125 62.68 62.89625 62 61.8125 C59.85882351 58.80147056 58.25037189 57.66482463 55 56 C54.195625 55.505 53.39125 55.01 52.5625 54.5 C47.58143123 51.29157794 47.58143123 51.29157794 42 50 C42.41572266 50.90492187 42.41572266 50.90492187 42.83984375 51.828125 C43.38318359 53.02695313 43.38318359 53.02695313 43.9375 54.25 C44.29714844 55.03890625 44.65679687 55.8278125 45.02734375 56.640625 C48.21151403 64.3644758 47.75701579 72.20172672 44.8671875 79.94921875 C43.70285487 82.70270807 42.41713779 85.36817267 41 88 C40.67 88 40.34 88 40 88 C39.67 84.7 39.34 81.4 39 78 C38.67 78 38.34 78 38 78 C37.67 73.71 37.34 69.42 37 65 C36.34 65 35.68 65 35 65 C34.01 62.69 33.02 60.38 32 58 C31.34 58 30.68 58 30 58 C29.34 57.01 28.68 56.02 28 55 C26.68 55 25.36 55 24 55 C23.505 55.99 23.505 55.99 23 57 C22.13375 57.1546875 22.13375 57.1546875 21.25 57.3125 C16.2043088 58.85423898 13.41020352 63.58129354 11 68 C10.37738281 69.05960938 10.37738281 69.05960938 9.7421875 70.140625 C9.06542969 71.30851562 9.06542969 71.30851562 8.375 72.5 C7.94960937 73.2321875 7.52421875 73.964375 7.0859375 74.71875 C5.93053349 77.14592965 5.41930774 79.35370227 5 82 C1.37128157 77.89839007 1.44313578 74.67681515 1.5859375 69.3671875 C2.71986834 60.14597634 6.4785106 52.5214894 13 46 C9.87709365 46.48578543 7.00419641 46.9986012 4 48 C4 47.34 4 46.68 4 46 C1.03 47.65 -1.94 49.3 -5 51 C-5 50.34 -5 49.68 -5 49 C-5.59167969 49.47050781 -6.18335938 49.94101563 -6.79296875 50.42578125 C-13.62283918 55.80722892 -13.62283918 55.80722892 -16.8125 57.4375 C-20.17415037 59.83867884 -21.41288775 63.26718291 -23 67 C-23.33 67 -23.66 67 -24 67 C-24.6134049 58.71903381 -22.46182158 51.73787685 -17.25 45.1875 C-10.12467134 37.69179535 -2.13366288 35.40523172 8 34 C10.33291811 33.95598268 12.66734983 33.94354095 15 34 C9.91122084 31.94663297 5.48268796 30.65792255 0 30 C-0.66 29.67 -1.32 29.34 -2 29 C-4.22624593 29.3191623 -4.22624593 29.3191623 -6.625 29.9375 C-7.85089844 30.22947266 -7.85089844 30.22947266 -9.1015625 30.52734375 C-9.72804687 30.68332031 -10.35453125 30.83929688 -11 31 C-11 30.34 -11 29.68 -11 29 C-13.97 30.32 -16.94 31.64 -20 33 C-20 32.34 -20 31.68 -20 31 C-21.29217171 31.47780303 -22.58372046 31.95729106 -23.875 32.4375 C-24.59429687 32.70433594 -25.31359375 32.97117188 -26.0546875 33.24609375 C-28.03648845 33.97916854 -28.03648845 33.97916854 -30 35 C-28.31651563 28.82722397 -23.81085922 24.68392488 -18.45703125 21.4765625 C-9.52638606 16.91230366 -0.72111497 15.20987253 9.2265625 17.859375 C12.57680397 19.07925184 15.81144112 20.40572056 19 22 C13.99954569 12.62166419 13.99954569 12.62166419 6 6 C6 5.01 6 4.02 6 3 C4.02 2.34 2.04 1.68 0 1 C0 0.67 0 0.34 0 0 Z " fill="#48A230" transform="translate(178,59)"/>
<path d="M0 0 C3.37462715 0.54723683 5.08235 1.0549 8 3 C6.1379465 9.4844182 4.0482056 15.87658227 1.8717804 22.26187134 C-2.45664552 34.96640435 -6.66148288 47.66998501 -10.1875 60.625 C-10.47850586 61.67751953 -10.76951172 62.73003906 -11.06933594 63.81445312 C-12.44727426 69.02836634 -13.33996008 73.6059668 -13 79 C-9.2047869 77.50902342 -7.38957269 75.24299151 -5 72 C2.75 73.625 2.75 73.625 5 77 C4.65394389 79.28397032 4.03295481 80.93409037 3 83 C6.69007612 84.84503806 10.96370604 84.34850262 15 84 C18.13069417 83.04535414 18.13069417 83.04535414 20 81 C20.75 78.5 20.75 78.5 20 76 C16.21127387 72.55894521 11.60580204 71.21513225 6.875 69.4765625 C3.53084452 67.75904786 1.98330117 66.17897557 0 63 C-0.53670498 59.80167647 -0.05399602 57.05658847 1 54 C3.80325882 50.34165909 7.6777188 48.37829386 12 47 C14.69350073 46.78552269 17.24815841 46.67501466 19.9375 46.6875 C20.62779297 46.67138672 21.31808594 46.65527344 22.02929688 46.63867188 C26.75794018 46.63418975 29.99810094 47.48888471 34 50 C35.41441874 52.82883747 35.31900332 54.87376745 35 58 C33.375 59.9375 33.375 59.9375 31 61 C25.57446809 60.57446809 25.57446809 60.57446809 24 59 C23.875 56 23.875 56 24 53 C24.33 52.67 24.66 52.34 25 52 C23.22950311 51.94589313 21.45853151 51.90715881 19.6875 51.875 C18.20830078 51.84019531 18.20830078 51.84019531 16.69921875 51.8046875 C13.77593473 51.79317361 13.77593473 51.79317361 11 54 C11.23693795 55.95466753 11.23693795 55.95466753 12 58 C14.61389599 59.34682098 17.08228844 60.4537772 19.8125 61.5 C28.86998714 65.02638166 28.86998714 65.02638166 32 69 C33.21762731 72.65288193 33.39075851 75.15754136 33 79 C29.61427273 84.57006745 25.30915225 87.38876743 19 89 C8.78815308 90.15694913 1.45755908 88.63837272 -7 83 C-7.50789063 83.433125 -8.01578125 83.86625 -8.5390625 84.3125 C-14.15621891 88.85671642 -14.15621891 88.85671642 -18.3125 89.5625 C-21 89 -21 89 -22.8125 87.9375 C-24.55729603 85.09072753 -24.69042148 82.28153235 -25 79 C-26.051875 80.36125 -26.051875 80.36125 -27.125 81.75 C-29.76312389 84.87721427 -32.33032685 87.09176996 -36 89 C-39.875 89.25 -39.875 89.25 -43 89 C-44.98 85.535 -44.98 85.535 -47 82 C-48.36125 83.175625 -48.36125 83.175625 -49.75 84.375 C-54.52404247 88.49803668 -58.27075025 89.44931443 -64.52734375 89.3203125 C-69.12331926 88.72494127 -71.84359885 86.31590476 -74.8125 82.9375 C-78.22325517 77.37258367 -77.81382037 69.86404476 -76.50390625 63.64453125 C-74.06104203 56.50915947 -69.46589698 51.7952004 -63 48 C-58.0652847 46.3550949 -53.13679743 46.26522614 -48 47 C-45.17230383 48.61649965 -43.09613143 50.52006986 -41 53 C-40.34 51.35 -39.68 49.7 -39 48 C-35.7 48 -32.4 48 -29 48 C-29.43829383 53.36909943 -30.59404076 58.32585572 -32.0625 63.5 C-33.55849443 68.80815569 -34.45075967 73.47819403 -34 79 C-30.18084612 77.49961812 -28.50053617 75.16734582 -26 72 C-25.34 72 -24.68 72 -24 72 C-23.89042969 71.26716797 -23.78085938 70.53433594 -23.66796875 69.77929688 C-22.53158636 62.54063342 -20.99572283 55.54777574 -19 48.5 C-18.70456299 47.44917236 -18.40912598 46.39834473 -18.10473633 45.31567383 C-9.41242843 15.19427429 -9.41242843 15.19427429 -3 3 C-2.34 3 -1.68 3 -1 3 C-0.67 2.01 -0.34 1.02 0 0 Z " fill="#C40B0F" transform="translate(202,113)"/>
<path d="M0 0 C1.051875 0.7425 2.10375 1.485 3.1875 2.25 C3.991875 2.806875 4.79625 3.36375 5.625 3.9375 C8.02882031 7.49515406 8.49019883 10.99708139 8.1875 15.25 C6.6875 18.3125 6.6875 18.3125 4.1875 20.25 C0.625 20.8125 0.625 20.8125 -2.8125 20.25 C-4.875 18.5625 -4.875 18.5625 -5.8125 16.25 C-5.0625 13.8125 -5.0625 13.8125 -3.8125 11.25 C-3.44378912 9.59080104 -3.09968326 7.9252357 -2.8125 6.25 C-8.35404111 2.44082366 -13.26340892 2.33499116 -19.8125 3.25 C-23.66678287 4.77477125 -26.76149084 6.57048038 -28.98828125 10.12890625 C-30.56567388 14.18826263 -30.61654361 17.99108151 -29.8125 22.25 C-26.98388458 27.53597506 -22.58338118 31.50063276 -18.3125 35.625 C-12.1191097 41.65958543 -5.56011022 49.92929541 -4.51171875 58.79296875 C-4.46752142 68.76683202 -6.29653721 76.460156 -12.79296875 84.21484375 C-16.10043754 87.54790224 -19.7466979 89.93682114 -23.8125 92.25 C-24.43769531 92.62898438 -25.06289062 93.00796875 -25.70703125 93.3984375 C-38.87239604 100.77104178 -57.38039038 101.55125736 -71.9375 98.5234375 C-79.57867637 96.34782478 -85.18418984 93.48484328 -90.25 87.25 C-93.28859896 81.18601338 -92.83610758 73.79817821 -91 67.43359375 C-87.40216299 59.25101304 -81.05693628 54.55668702 -73.125 50.8125 C-64.3500158 47.66005622 -54.38837723 47.94973083 -45.94140625 51.9296875 C-41.62303429 54.60787048 -38.63623428 57.56350298 -37.125 62.4921875 C-36.51791018 66.24855577 -36.68733334 68.84320836 -37.8125 72.5 C-40.87882096 76.71619132 -44.06717756 79.65641677 -49.26953125 80.78125 C-51.45790051 81.02938006 -53.61146041 81.19509879 -55.8125 81.25 C-55.8125 80.26 -55.8125 79.27 -55.8125 78.25 C-51.8525 76.27 -47.8925 74.29 -43.8125 72.25 C-43.8125 68.95 -43.8125 65.65 -43.8125 62.25 C-54.45685836 58.88862368 -65.43656816 56.92354628 -75.8125 62.25 C-80.71032257 66.18955294 -83.50018265 70.38709092 -84.1875 76.6875 C-83.68189958 81.49070401 -82.89375059 85.39837096 -79.1484375 88.73046875 C-69.55665734 95.24600069 -57.73298496 95.46853615 -46.5625 93.75 C-35.35540607 91.23412177 -27.63947899 86.58076101 -20.8125 77.25 C-17.7661134 71.41109236 -17.76367683 64.10596753 -19.4765625 57.80859375 C-22.32887929 51.20036364 -27.16175822 46.48069787 -32.06201172 41.35888672 C-37.81412858 35.30602718 -41.94971218 30.31139187 -42.375 21.6875 C-42.0038619 14.69447687 -39.74215659 9.77204603 -34.625 5 C-33.38184554 4.04613306 -32.10983632 3.12875686 -30.8125 2.25 C-30.20019531 1.83492188 -29.58789062 1.41984375 -28.95703125 0.9921875 C-21.03430874 -3.39059516 -8.2425725 -3.90437645 0 0 Z " fill="#CF0911" transform="translate(130.8125,103.75)"/>
<path d="M0 0 C1.11246094 -0.02835938 2.22492188 -0.05671875 3.37109375 -0.0859375 C7.20821607 0.46826132 8.81796795 1.69522098 11.5625 4.375 C12.0575 5.365 12.0575 5.365 12.5625 6.375 C12.995625 5.1375 12.995625 5.1375 13.4375 3.875 C15.5625 1.375 15.5625 1.375 17.98828125 1.04296875 C20.5286018 1.06093424 23.03148139 1.16131175 25.5625 1.375 C24.63983818 6.98695484 23.59238486 12.47343429 22 17.9375 C20.5378408 23.06244184 19.89649702 28.06559903 19.5625 33.375 C23.54425544 31.27351796 25.91289045 29.00594642 28.5625 25.375 C29.5525 25.705 30.5425 26.035 31.5625 26.375 C30.47806079 32.68446452 25.26243363 36.98729907 20.5 40.875 C17.14553368 42.58791897 15.27158015 43.03439203 11.5625 42.375 C9.09043389 39.98817755 8.16107248 37.7270059 7.5625 34.375 C6.86125 35.138125 6.16 35.90125 5.4375 36.6875 C1.2238399 40.62635618 -2.22839105 42.52985571 -8 42.75 C-13.16200385 42.55945623 -15.87207953 40.76648486 -19.6875 37.375 C-23.64000698 32.85784917 -22.82757813 26.80090235 -22.70703125 21.11328125 C-22.19080329 13.95342387 -19.64715737 10.26255991 -14.4375 5.5 C-9.64225896 1.47274678 -6.34021763 0.07329731 0 0 Z " fill="#BF0C0E" transform="translate(260.4375,159.625)"/>
<path d="M0 0 C1 2 1 2 0.44140625 3.8828125 C0.15136719 4.62273437 -0.13867188 5.36265625 -0.4375 6.125 C-3.09468082 13.77817056 -2.27077422 19.67737115 1 27 C1.309375 27.78375 1.61875 28.5675 1.9375 29.375 C3.31527259 31.48218161 4.7414056 31.92840412 7 33 C8.093125 33.61875 9.18625 34.2375 10.3125 34.875 C40.39124872 49.94259082 80.55532395 41.30235201 112.65102005 38.0159874 C136.81530841 35.54287824 160.6598835 34.72071698 184.9375 34.6875 C185.71717133 34.68620213 186.49684265 34.68490425 187.30014038 34.68356705 C219.84970331 34.64252087 252.89496238 35.08067923 284 46 C280.32382029 47.22539324 278.25932724 46.72089364 274.4453125 46.07421875 C273.10515839 45.85309821 271.76498848 45.63207342 270.42480469 45.41113281 C269.72303101 45.29274048 269.02125732 45.17434814 268.29821777 45.05236816 C254.90167149 42.80318113 241.55885773 40.94366711 228 40 C227.25121582 39.94360352 226.50243164 39.88720703 225.73095703 39.82910156 C190.57740202 37.26004176 155.40209847 39.10695183 120.60595703 44.45458984 C114.22408839 45.41986368 107.83097234 46.30296621 101.4375 47.1875 C100.25478516 47.35427246 99.07207031 47.52104492 97.85351562 47.69287109 C86.16121233 49.31717308 74.69624329 50.18664898 62.89501953 50.18530273 C60.76704681 50.18748254 58.63959999 50.20569378 56.51171875 50.22460938 C37.92000696 50.30172721 14.37821725 48.85808531 -0.2265625 36.046875 C-5.41783703 30.44969834 -7.49226744 25.13463773 -7.32421875 17.5078125 C-6.49296528 11.07811702 -4.08792829 5.02498922 0 0 Z " fill="#007A3B" transform="translate(35,171)"/>
<path d="M0 0 C2.88885724 2.98357387 3.41012437 5.15215694 3.375 9.25 C3.15658628 16.6959224 1.26891189 22.57142411 -4 28 C-7.25016156 30.27511309 -10.09099527 30.48862559 -14 30 C-16.59713666 28.3855637 -17.66795871 27.0325413 -18.60546875 24.1171875 C-19.79511134 17.54470663 -18.17286692 11.79899688 -15 6 C-10.499627 0.88957643 -6.84431947 -1.81583986 0 0 Z " fill="#030000" transform="translate(268,166)"/>
<path d="M0 0 C1.66015625 1.1328125 1.66015625 1.1328125 3 3 C4.17971975 10.6485164 3.75303325 17.70184494 -0.58203125 24.22265625 C-3.67115679 28.09470067 -5.5999814 29.77894443 -10.5625 30.5625 C-14 30 -14 30 -16.4375 28.1875 C-19.17783936 22.59720771 -19.04644187 17.07070648 -17.046875 11.203125 C-13.41656994 3.43702936 -9.05087068 -2.21653976 0 0 Z " fill="#020000" transform="translate(155,166)"/>
<path d="M0 0 C-0.0625 1.8125 -0.0625 1.8125 -1 4 C-4.96873594 6.09669068 -7.48438726 7 -12 7 C-9.87654283 1.40179474 -5.8147806 -0.49840977 0 0 Z " fill="#64A622" transform="translate(56,144)"/>
<path d="M0 0 C1.57156655 3.1431331 0.11705576 5.365464 -0.9375 8.625 C-1.31777344 9.81351563 -1.69804688 11.00203125 -2.08984375 12.2265625 C-2.39019531 13.14179688 -2.69054688 14.05703125 -3 15 C-3.99 15 -4.98 15 -6 15 C-5.61471495 8.83543922 -3.52913975 5.01372252 0 0 Z " fill="#479527" transform="translate(35,171)"/>
<path d="M0 0 C-3.0867491 1.02891637 -4.13934736 0.98947742 -7.23046875 0.44140625 C-8.03291016 0.30283203 -8.83535156 0.16425781 -9.66210938 0.02148438 C-10.91217773 -0.20571289 -10.91217773 -0.20571289 -12.1875 -0.4375 C-13.03248047 -0.58509766 -13.87746094 -0.73269531 -14.74804688 -0.88476562 C-16.8331891 -1.24996003 -18.91675673 -1.6241243 -21 -2 C-21 -2.33 -21 -2.66 -21 -3 C-13.79624703 -4.81056893 -6.83207925 -2.51708183 0 0 Z " fill="#016931" transform="translate(319,217)"/>
<path d="M0 0 C0.99 0 1.98 0 3 0 C2.69381595 3.67420866 2.24228216 4.78135513 -0.5625 7.3125 C-1.366875 7.869375 -2.17125 8.42625 -3 9 C-2.5020163 5.26512223 -2.12508244 3.18762365 0 0 Z " fill="#65A523" transform="translate(36,148)"/>
<path d="M0 0 C1.32 0 2.64 0 4 0 C4.25 2.8125 4.25 2.8125 4 6 C2 7.875 2 7.875 0 9 C0 6.03 0 3.06 0 0 Z " fill="#1E9037" transform="translate(28,186)"/>
<path d="M0 0 C0.66 0.33 1.32 0.66 2 1 C0.02 2.98 -1.96 4.96 -4 7 C-3.67 7.66 -3.34 8.32 -3 9 C-4.98 9.99 -6.96 10.98 -9 12 C-7.54718935 6.67302761 -3.91888622 3.63597198 0 0 Z " fill="#47972B" transform="translate(157,82)"/>
<path d="M0 0 C1.77049689 -0.05410687 3.54146849 -0.09284119 5.3125 -0.125 C6.29863281 -0.14820312 7.28476563 -0.17140625 8.30078125 -0.1953125 C11 0 11 0 14 2 C12.02 2.33 10.04 2.66 8 3 C8 2.34 8 1.68 8 1 C5.36 1 2.72 1 0 1 C0 0.67 0 0.34 0 0 Z " fill="#64A326" transform="translate(230,67)"/>
</svg>
