<?xml version="1.0" encoding="UTF-8"?>
<svg version="1.1" xmlns="http://www.w3.org/2000/svg" width="350" height="280">
<path d="M0 0 C115.5 0 231 0 350 0 C350 92.4 350 184.8 350 280 C234.5 280 119 280 0 280 C0 187.6 0 95.2 0 0 Z " fill="#FEFEFD" transform="translate(0,0)"/>
<path d="M0 0 C9.47345124 0.03664778 17.16020707 2.39866402 24.140625 9.03515625 C25.8605453 10.96825995 27.45476687 12.92569248 29 15 C29.556875 15.73992187 30.11375 16.47984375 30.6875 17.2421875 C31.120625 17.82226562 31.55375 18.40234375 32 19 C32.44730469 18.60167969 32.89460938 18.20335938 33.35546875 17.79296875 C42.04596801 10.17720074 48.82946267 7.79274384 60.328125 7.734375 C63 8 63 8 66 10 C64.02 10.33 62.04 10.66 60 11 C60 11.66 60 12.32 60 13 C58.906875 13.268125 57.81375 13.53625 56.6875 13.8125 C53.3052459 14.90170047 52.10856008 15.33655569 50 18 C48 20 46 22 44 24 C45.23234375 24.00257812 46.4646875 24.00515625 47.734375 24.0078125 C59.21691197 24.20300285 68.38892831 25.17570048 77.36328125 33.08203125 C81.71827821 37.62810669 85.42386184 42.81955274 87 49 C86.67 49.99 86.34 50.98 86 52 C85.4225 51.21625 84.845 50.4325 84.25 49.625 C82.17102363 47.19952756 80.90959667 46.14305583 78 45 C77.67 45.66 77.34 46.32 77 47 C75.824375 45.7934375 75.824375 45.7934375 74.625 44.5625 C72.28017144 42.01309583 72.28017144 42.01309583 70 41 C69.505 41.99 69.505 41.99 69 43 C68.05125 42.175 67.1025 41.35 66.125 40.5 C59.40166465 36.16039264 50.65870334 37.63179311 43 38 C43.60585937 38.14695313 44.21171875 38.29390625 44.8359375 38.4453125 C55.18370473 41.21533019 63.92082434 45.95379961 70 55 C74.45103396 62.93789735 75.38197596 70.90396366 73 79.6875 C72.67 80.450625 72.34 81.21375 72 82 C71.67 82 71.34 82 71 82 C70.81824219 81.11248047 70.81824219 81.11248047 70.6328125 80.20703125 C69.73255357 75.96196415 68.79543379 71.97560339 67 68 C66.34 68 65.68 68 65 68 C63.66653588 66.04969533 62.56108684 64.00995631 61.4140625 61.9453125 C59.79353051 59.71596186 58.47568844 59.12134123 56 58 C55.175 57.154375 54.35 56.30875 53.5 55.4375 C51.00809794 53.00789549 50.26760555 52.51056337 47 52 C45.3255761 51.3530635 43.65697379 50.69040574 42 50 C42.27714844 50.51949219 42.55429688 51.03898437 42.83984375 51.57421875 C43.20207031 52.27160156 43.56429687 52.96898437 43.9375 53.6875 C44.47697266 54.71423828 44.47697266 54.71423828 45.02734375 55.76171875 C48.9631921 64.81891195 47.55064737 74.87759892 44.16796875 83.8203125 C43 86 43 86 40 88 C40 84.7 40 81.4 40 78 C39.34 78 38.68 78 38 78 C37.94392578 77.00419922 37.94392578 77.00419922 37.88671875 75.98828125 C37.50582162 70.87231003 37.11592322 67.23765558 34 63 C33.3178419 61.67452554 32.64863526 60.34219764 32 59 C26.93556346 72.47983287 22.24380662 86.01715687 18.125 99.8125 C17.75640869 101.04371582 17.38781738 102.27493164 17.00805664 103.54345703 C12.25636715 118.01092304 12.25636715 118.01092304 11 133 C14.7952131 131.50902342 16.61042731 129.24299151 19 126 C23.21912747 126.4794463 25.79663178 127.16625119 29 130 C28.125 134.75 28.125 134.75 27 137 C30.69007612 138.84503806 34.96370604 138.34850262 39 138 C42.13069417 137.04535414 42.13069417 137.04535414 44 135 C44.75 132.5 44.75 132.5 44 130 C41.10185955 127.36229153 38.27519753 126.31521256 34.5625 125.1875 C29.30216107 123.33090979 26.77484494 121.87989973 24 117 C23.18157453 112.41681736 23.56873601 110.65958021 26.125 106.75 C31.57250358 101.5393444 36.25412703 100.51039041 43.5 100.625 C44.23347656 100.61339844 44.96695313 100.60179687 45.72265625 100.58984375 C50.49557745 100.61545871 53.91843918 101.28105256 58 104 C59.125 107.4375 59.125 107.4375 59 111 C57.4375 113.5 57.4375 113.5 55 115 C49.6875 114.6875 49.6875 114.6875 48 113 C47.76470588 107.47058824 47.76470588 107.47058824 49 105 C47.22844346 105.11429397 45.45773771 105.24183037 43.6875 105.375 C42.20830078 105.47941406 42.20830078 105.47941406 40.69921875 105.5859375 C37.78471567 105.83865472 37.78471567 105.83865472 35 108 C35.23914638 109.9574476 35.23914638 109.9574476 36 112 C39.26154972 113.63077486 42.50958974 114.91542354 45.921875 116.1796875 C51.12104299 118.24406303 53.85422464 120.32401221 57 125 C57.54200349 128.86177489 57.38630645 131.1257275 55.8125 134.6875 C52.54240324 138.85969242 49.02653089 141.3801083 44 143 C41.34357282 143.24072997 38.84121449 143.3805835 36.1875 143.375 C35.47698486 143.37483887 34.76646973 143.37467773 34.03442383 143.37451172 C26.75282741 143.21579848 22.93982183 140.95988122 17 137 C16.05125 137.804375 15.1025 138.60875 14.125 139.4375 C10.35426812 142.63442486 8.06073931 143.41312158 3 143 C1.1875 141.9375 1.1875 141.9375 0 140 C-0.6875 136.3125 -0.6875 136.3125 -1 133 C-1.37511719 133.47050781 -1.75023437 133.94101563 -2.13671875 134.42578125 C-6.16623334 139.32818817 -9.08266841 142.59760944 -15.625 143.5 C-19 143 -19 143 -20.875 140.625 C-21.24625 139.75875 -21.6175 138.8925 -22 138 C-22.495 137.01 -22.495 137.01 -23 136 C-23.47050781 136.42152344 -23.94101563 136.84304687 -24.42578125 137.27734375 C-25.04839844 137.82519531 -25.67101562 138.37304688 -26.3125 138.9375 C-26.92738281 139.48277344 -27.54226562 140.02804688 -28.17578125 140.58984375 C-32.07148887 143.60130082 -36.46833548 143.45165892 -41.19921875 143.4140625 C-45.63738721 142.7579316 -48.35751405 140.55156275 -51 137 C-54.19935544 130.57967185 -54.20524858 122.93858019 -52.125 116.140625 C-48.95836254 109.26568841 -44.1207718 103.85851771 -37 101 C-31.78571276 100.29112958 -26.30437831 99.71313938 -21.59375 102.34375 C-19.90620384 103.80997863 -18.41464883 105.27155634 -17 107 C-16.34 105.35 -15.68 103.7 -15 102 C-11.7 102 -8.4 102 -5 102 C-5.43829383 107.36909943 -6.59404076 112.32585572 -8.0625 117.5 C-9.55849443 122.80815569 -10.45075967 127.47819403 -10 133 C-5.7728118 131.49028993 -4.37886956 128.64759999 -2 125 C-1.34 125 -0.68 125 0 125 C0.10884521 124.26281738 0.21769043 123.52563477 0.32983398 122.76611328 C1.44299554 115.6262122 2.99218775 108.79418591 5.0625 101.875 C5.36051514 100.86453613 5.65853027 99.85407227 5.96557617 98.81298828 C9.3276765 87.60484273 13.19612062 76.57311234 17.10400391 65.54589844 C18.10275269 62.70803678 19.06497728 59.85948749 20 57 C19.38125 57.99 18.7625 58.98 18.125 60 C17.073125 61.485 17.073125 61.485 16 63 C15.34 63 14.68 63 14 63 C12.68 66.63 11.36 70.26 10 74 C9.34 74 8.68 74 8 74 C7.01 77.3 6.02 80.6 5 84 C1.53808615 80.53808615 1.7960589 76.61731004 1.6875 71.875 C1.79076636 61.62868206 5.74578441 53.25421559 13 46 C9.87709365 46.48578543 7.00419641 46.9986012 4 48 C4 47.34 4 46.68 4 46 C3.07767578 46.54140625 3.07767578 46.54140625 2.13671875 47.09375 C1.32847656 47.5578125 0.52023438 48.021875 -0.3125 48.5 C-1.11300781 48.9640625 -1.91351563 49.428125 -2.73828125 49.90625 C-5 51 -5 51 -8 51 C-10.54037679 52.75177642 -12.73947233 54.90378381 -15 57 C-15.9075 57.825 -16.815 58.65 -17.75 59.5 C-20.14872906 62.16525451 -21.55611721 64.73226526 -23 68 C-23.33 68 -23.66 68 -24 68 C-25.02443466 59.42510249 -22.7479413 53.14203034 -18 46 C-10.55853512 37.64311682 -2.57886778 35.15001939 8.3125 34.4375 C9.56675781 34.35371094 10.82101563 34.26992187 12.11328125 34.18359375 C13.06589844 34.12300781 14.01851563 34.06242187 15 34 C6.85638991 30.32739153 -2.21677951 28.84900723 -11 31 C-11 30.34 -11 29.68 -11 29 C-11.55429688 29.27714844 -12.10859375 29.55429688 -12.6796875 29.83984375 C-15.453125 31.2265625 -18.2265625 32.61328125 -21 34 C-21 33.01 -21 32.02 -21 31 C-23.97 32.32 -26.94 33.64 -30 35 C-28.24483327 28.56438864 -23.02073076 24.0126241 -17.4375 20.6875 C-6.45997005 15.29853075 2.94692626 16.20166958 14.3828125 20.02734375 C17 21 17 21 19 22 C18.21869929 19.50447516 18.21869929 19.50447516 17 17 C15.515 16.505 15.515 16.505 14 16 C14 15.01 14 14.02 14 13 C12.68798827 11.43750191 12.68798827 11.43750191 11 10 C10.505 9.484375 10.01 8.96875 9.5 8.4375 C7.85424985 6.77629047 7.85424985 6.77629047 5 5 C5.33 4.34 5.66 3.68 6 3 C4.02 2.34 2.04 1.68 0 1 C0 0.67 0 0.34 0 0 Z " fill="#4DA736" transform="translate(178,59)"/>
<path d="M0 0 C3.40667322 0.44824648 5.07914607 1.05276405 8 3 C6.26657913 9.07306016 4.32785788 15.06571027 2.29296875 21.04296875 C-4.71723223 41.52635987 -4.71723223 41.52635987 -10.75 62.3125 C-10.98952393 63.21057373 -11.22904785 64.10864746 -11.47583008 65.03393555 C-12.68188851 69.82517115 -13.23997115 74.06059393 -13 79 C-9.2047869 77.50902342 -7.38957269 75.24299151 -5 72 C-0.78087253 72.4794463 1.79663178 73.16625119 5 76 C4.125 80.75 4.125 80.75 3 83 C6.69007612 84.84503806 10.96370604 84.34850262 15 84 C18.13069417 83.04535414 18.13069417 83.04535414 20 81 C20.75 78.5 20.75 78.5 20 76 C17.10185955 73.36229153 14.27519753 72.31521256 10.5625 71.1875 C5.30216107 69.33090979 2.77484494 67.87989973 0 63 C-0.81842547 58.41681736 -0.43126399 56.65958021 2.125 52.75 C7.57250358 47.5393444 12.25412703 46.51039041 19.5 46.625 C20.23347656 46.61339844 20.96695313 46.60179687 21.72265625 46.58984375 C26.49557745 46.61545871 29.91843918 47.28105256 34 50 C35.125 53.4375 35.125 53.4375 35 57 C33.4375 59.5 33.4375 59.5 31 61 C25.6875 60.6875 25.6875 60.6875 24 59 C23.76470588 53.47058824 23.76470588 53.47058824 25 51 C23.22844346 51.11429397 21.45773771 51.24183037 19.6875 51.375 C18.20830078 51.47941406 18.20830078 51.47941406 16.69921875 51.5859375 C13.78471567 51.83865472 13.78471567 51.83865472 11 54 C11.23914638 55.9574476 11.23914638 55.9574476 12 58 C15.26154972 59.63077486 18.50958974 60.91542354 21.921875 62.1796875 C27.12104299 64.24406303 29.85422464 66.32401221 33 71 C33.54200349 74.86177489 33.38630645 77.1257275 31.8125 80.6875 C28.54240324 84.85969242 25.02653089 87.3801083 20 89 C17.34357282 89.24072997 14.84121449 89.3805835 12.1875 89.375 C11.47698486 89.37483887 10.76646973 89.37467773 10.03442383 89.37451172 C2.75282741 89.21579848 -1.06017817 86.95988122 -7 83 C-7.94875 83.804375 -8.8975 84.60875 -9.875 85.4375 C-13.64573188 88.63442486 -15.93926069 89.41312158 -21 89 C-22.8125 87.9375 -22.8125 87.9375 -24 86 C-24.6875 82.3125 -24.6875 82.3125 -25 79 C-25.37511719 79.47050781 -25.75023437 79.94101563 -26.13671875 80.42578125 C-30.16623334 85.32818817 -33.08266841 88.59760944 -39.625 89.5 C-43 89 -43 89 -44.875 86.625 C-45.24625 85.75875 -45.6175 84.8925 -46 84 C-46.495 83.01 -46.495 83.01 -47 82 C-47.47050781 82.42152344 -47.94101563 82.84304687 -48.42578125 83.27734375 C-49.04839844 83.82519531 -49.67101562 84.37304688 -50.3125 84.9375 C-50.92738281 85.48277344 -51.54226562 86.02804688 -52.17578125 86.58984375 C-56.07148887 89.60130082 -60.46833548 89.45165892 -65.19921875 89.4140625 C-69.63738721 88.7579316 -72.35751405 86.55156275 -75 83 C-78.19935544 76.57967185 -78.20524858 68.93858019 -76.125 62.140625 C-72.95836254 55.26568841 -68.1207718 49.85851771 -61 47 C-55.78571276 46.29112958 -50.30437831 45.71313938 -45.59375 48.34375 C-43.90620384 49.80997863 -42.41464883 51.27155634 -41 53 C-40.34 51.35 -39.68 49.7 -39 48 C-35.7 48 -32.4 48 -29 48 C-29.43829383 53.36909943 -30.59404076 58.32585572 -32.0625 63.5 C-33.55849443 68.80815569 -34.45075967 73.47819403 -34 79 C-29.7728118 77.49028993 -28.37886956 74.64759999 -26 71 C-25.34 71 -24.68 71 -24 71 C-23.89115479 70.26281738 -23.78230957 69.52563477 -23.67016602 68.76611328 C-22.55703836 61.62642959 -21.00908396 54.79368819 -18.9375 47.875 C-18.63730957 46.86308594 -18.33711914 45.85117188 -18.02783203 44.80859375 C-15.62246171 36.82408364 -13.05119097 28.897602 -10.375 21 C-9.83540649 19.38134033 -9.83540649 19.38134033 -9.28491211 17.72998047 C-7.12521034 11.4860416 -4.7839362 4.7839362 0 0 Z " fill="#C91115" transform="translate(202,113)"/>
<path d="M0 0 C0.74991211 0.00757324 1.49982422 0.01514648 2.27246094 0.02294922 C9.58720649 0.24146648 14.40888764 1.96896316 19.5625 7.25 C21.94544716 11.04782204 22.13384203 13.03000433 21.5625 17.4375 C20.54513229 20.19892665 20.20079259 21.11835371 17.5625 22.4375 C14.0625 22.625 14.0625 22.625 10.5625 22.4375 C8.5625 20.4375 8.5625 20.4375 8.3125 17.5 C8.5625 14.4375 8.5625 14.4375 10.5625 11.4375 C10.47678339 9.34458843 10.47678339 9.34458843 9.5625 7.4375 C4.65817759 4.16795172 -0.71140921 4.76900591 -6.4375 5.4375 C-10.3362192 6.92923555 -13.37523795 8.73433985 -15.609375 12.31640625 C-17.19410367 16.37540468 -17.23683801 20.17646196 -16.4375 24.4375 C-13.53478562 29.93492369 -8.85406031 34.03100269 -4.4375 38.3125 C2.81001226 45.38297379 8.63853926 53.08300857 8.875 63.4375 C8.75117728 73.5684499 5.89131463 81.12220667 -1.17578125 88.4375 C-15.60287406 101.19513647 -33.36405562 102.22059928 -51.71240234 101.61669922 C-60.5854157 101.03322029 -69.22287601 98.00269252 -75.4375 91.4375 C-79.38967959 85.385725 -79.45030519 78.48528491 -78.4375 71.4375 C-75.7195535 64.16973098 -71.02597167 59.34177951 -64.4375 55.4375 C-63.78265625 55.025 -63.1278125 54.6125 -62.453125 54.1875 C-54.81665878 50.05347317 -45.78301807 50.25194547 -37.4609375 52.09765625 C-30.95364561 54.36832759 -26.52737562 58.25774876 -23.4375 64.4375 C-23.05058714 69.08045428 -22.96559265 71.4936853 -25.0625 75.6875 C-28.99638765 80.24252781 -32.33115116 82.5020393 -38.3125 83.1875 C-39.68640621 83.28725557 -41.06133557 83.37633714 -42.4375 83.4375 C-42.4375 82.4475 -42.4375 81.4575 -42.4375 80.4375 C-38.4775 78.4575 -34.5175 76.4775 -30.4375 74.4375 C-30.4375 71.1375 -30.4375 67.8375 -30.4375 64.4375 C-40.30145956 60.79542263 -51.24281965 59.0374248 -61.125 63.5625 C-66.25441575 66.56175971 -68.55407041 69.78721123 -70.4375 75.4375 C-71.01135682 81.29083957 -70.04777564 85.79571703 -66.4375 90.4375 C-56.9380977 97.42296069 -44.35499662 97.55648111 -33.1484375 95.97265625 C-23.05539863 93.76887903 -14.27803956 89.15012006 -8.4375 80.4375 C-4.87085865 74.3742097 -4.4054053 68.3004887 -5.4375 61.4375 C-7.86207606 54.78781883 -12.72809336 49.9251222 -17.5 44.875 C-23.78876267 38.21868725 -28.56199365 32.90845423 -29.0625 23.375 C-28.73173709 16.52472608 -26.58128517 12.32478387 -21.5703125 7.72265625 C-14.78545117 2.32380745 -8.60875382 -0.12133143 0 0 Z " fill="#D40F17" transform="translate(117.4375,101.5625)"/>
<path d="M0 0 C1.11246094 -0.02835938 2.22492188 -0.05671875 3.37109375 -0.0859375 C7.20821607 0.46826132 8.81796795 1.69522098 11.5625 4.375 C12.0575 5.365 12.0575 5.365 12.5625 6.375 C13.2225 4.725 13.8825 3.075 14.5625 1.375 C18.1925 1.375 21.8225 1.375 25.5625 1.375 C25.12703126 6.70949207 24.0013413 11.66518606 22.5625 16.8125 C21.01939204 22.34380068 19.96488872 27.64096069 19.5625 33.375 C20.09359375 32.8696875 20.6246875 32.364375 21.171875 31.84375 C21.87828125 31.1940625 22.5846875 30.544375 23.3125 29.875 C24.00859375 29.2253125 24.7046875 28.575625 25.421875 27.90625 C27.5625 26.375 27.5625 26.375 31.5625 26.375 C30.47806079 32.68446452 25.26243363 36.98729907 20.5 40.875 C17.14553368 42.58791897 15.27158015 43.03439203 11.5625 42.375 C9.09043389 39.98817755 8.16107248 37.7270059 7.5625 34.375 C6.86125 35.138125 6.16 35.90125 5.4375 36.6875 C1.05183259 40.78714562 -2.45195974 42.5432853 -8.4375 42.8125 C-13.15465731 42.6493502 -15.89859729 41.65495861 -19.4375 38.375 C-23.53057327 31.63807558 -23.15399382 25.03407182 -22.4375 17.375 C-20.61335708 10.00959273 -14.80810216 5.14705211 -8.58984375 1.203125 C-5.67090815 0.08004996 -3.12134189 0.03608488 0 0 Z " fill="#C41213" transform="translate(260.4375,159.625)"/>
<path d="M0 0 C0.33 0.66 0.66 1.32 1 2 C0.03523618 4.01723344 -0.96838392 6.01612292 -2 8 C-4.06862679 14.34378882 -3.8864772 22.13198554 -1.9375 28.4375 C4.73594091 37.26366378 14.77196286 41.64770454 25.51953125 43.6640625 C47.91609157 46.69729744 70.64220052 45.0814599 92.9838562 42.5491333 C99.47099612 41.81856851 105.96385069 41.14318362 112.45703125 40.46875 C113.72889786 40.33642975 115.00076447 40.2041095 116.31117249 40.06777954 C170.30538896 34.52434484 230.86520181 31.64692244 283 49 C283 49.33 283 49.66 283 50 C276.56211799 49.59676333 270.27644632 48.74244864 263.9375 47.5625 C255.82392303 46.07568589 247.72445236 45.02563744 239.51416016 44.24267578 C237.79692321 44.0769219 236.08045514 43.90305336 234.36474609 43.72216797 C215.24343181 41.72239859 196.192859 41.69834031 176.99420166 41.9732666 C175.2336711 41.99686751 173.47303446 42.01224657 171.71240234 42.02636719 C146.47500673 42.27654134 121.14489813 46.69768725 96.2800293 50.7434082 C67.47614046 55.38267967 26.70223005 58.40158668 1.0546875 41.60546875 C-3.75876482 37.84438718 -7.08529567 33.83898572 -9 28 C-10.38032112 16.50802415 -6.82822928 8.91463267 0 0 Z " fill="#0D8547" transform="translate(37,168)"/>
<path d="M0 0 C2.72937099 2.15476657 3.81980975 3.8196526 4.34765625 7.27734375 C4.61807528 14.90786323 2.57872431 21.83633267 -2 28 C-4.77032751 30.17133778 -6.57184946 30.93883564 -10.0625 31.4375 C-13 31 -13 31 -15.3125 29.5625 C-18.18639893 25.19843126 -18.45127129 20.80263222 -17.62890625 15.6953125 C-15.93873763 9.62750218 -12.54297986 5.29120025 -8 1 C-5.12529507 -0.43735246 -3.18105412 -0.38172649 0 0 Z " fill="#FDF8F8" transform="translate(267,165)"/>
<path d="M0 0 C2.96277086 2.22887349 3.90054023 3.44919865 4.56640625 7.13671875 C4.55590476 16.68256931 3.1309469 22.54292571 -3.375 29.5625 C-6.82788284 31.45336441 -9.12177771 31.50273252 -13 31 C-15.61593153 29.16884793 -15.96989455 28.09031634 -17 25 C-17.86462329 18.0688395 -16.46490179 12.0530144 -13 6 C-9.3247251 1.90281854 -5.59967289 -0.66662772 0 0 Z " fill="#FDF9F9" transform="translate(154,165)"/>
<path d="M0 0 C0.33 0.66 0.66 1.32 1 2 C0.55011719 2.87914062 0.10023437 3.75828125 -0.36328125 4.6640625 C-2.16201366 8.330214 -2.69214077 11.33591705 -3.1875 15.375 C-3.34605469 16.62023437 -3.50460938 17.86546875 -3.66796875 19.1484375 C-3.77753906 20.08945313 -3.88710938 21.03046875 -4 22 C-4.33 20.68 -4.66 19.36 -5 18 C-5.99 18 -6.98 18 -8 18 C-8.33 18.66 -8.66 19.32 -9 20 C-8.33428153 12.01137833 -5.28353963 6.03833101 0 0 Z " fill="#61B156" transform="translate(37,168)"/>
<path d="M0 0 C-0.0625 1.8125 -0.0625 1.8125 -1 4 C-4.96873594 6.09669068 -7.48438726 7 -12 7 C-9.87654283 1.40179474 -5.8147806 -0.49840977 0 0 Z " fill="#76B934" transform="translate(56,144)"/>
<path d="M0 0 C0 0.33 0 0.66 0 1 C-8.0704358 0.38541771 -16.01385781 -0.69225335 -24 -2 C-24 -2.33 -24 -2.66 -24 -3 C-15.94609415 -5.41617176 -7.57768678 -2.91027101 0 0 Z " fill="#3B9C6A" transform="translate(320,217)"/>
<path d="M0 0 C0.99 0 1.98 0 3 0 C2.4739075 3.78786597 1.61896089 6.17152224 -1 9 C-1.66 9 -2.32 9 -3 9 C-2.25 2.25 -2.25 2.25 0 0 Z " fill="#7FBD41" transform="translate(36,148)"/>
<path d="M0 0 C0.99 0 1.98 0 3 0 C3.33 1.98 3.66 3.96 4 6 C3.01 6.33 2.02 6.66 1 7 C0.34 7.99 -0.32 8.98 -1 10 C-1.125 2.25 -1.125 2.25 0 0 Z " fill="#269A42" transform="translate(29,186)"/>
<path d="M0 0 C0.66 0.33 1.32 0.66 2 1 C1.50628906 1.47050781 1.01257813 1.94101563 0.50390625 2.42578125 C-0.13675781 3.04839844 -0.77742187 3.67101562 -1.4375 4.3125 C-2.07558594 4.92738281 -2.71367187 5.54226562 -3.37109375 6.17578125 C-5.2221418 8.00644056 -5.2221418 8.00644056 -6 11 C-6.99 11.33 -7.98 11.66 -9 12 C-7.54718935 6.67302761 -3.91888622 3.63597198 0 0 Z " fill="#61AF45" transform="translate(157,82)"/>
<path d="M0 0 C0.33 0.66 0.66 1.32 1 2 C0.07137808 4.03412421 -0.93753473 6.03247172 -2 8 C-2.391875 8.78375 -2.78375 9.5675 -3.1875 10.375 C-3.455625 10.91125 -3.72375 11.4475 -4 12 C-4.66 10.68 -5.32 9.36 -6 8 C-4.02 5.36 -2.04 2.72 0 0 Z " fill="#83BF56" transform="translate(37,168)"/>
</svg>
